<svg width="225" height="225" viewBox="0 0 225 225" fill="none" xmlns="http://www.w3.org/2000/svg">
<path d="M64.6 45.1C53.4 46.9 41.3 52.2 34.5 58.2C19.1 71.8 18 107.2 31.9 140.6C35.8 149.8 44 165.4 44.6 164.7C44.8 164.5 44 161.5 42.9 158C40.5 150.3 36.8 132.9 34.5 117.5C32.3 103.5 32.8 88 35.8 79.8C44.5 55.5 70.3 47.5 115 55.1C137.5 58.9 154.7 64.5 178.8 76C188.4 80.7 193 82.4 193 81.5C193 79.9 159.6 63.2 145.4 57.6C121.9 48.5 100 43.9 81.2 44.1C74.7 44.2 67.3 44.6 64.6 45.1Z" fill="white"/>
<path d="M77 58C61.9 60.1 50.4 66 45.6 74.2C42.7 79.2 40 88.8 40 94C40.1 97.4 40.1 97.4 41.9 92.3C51.2 65.2 92.1 60.8 165.3 79.1C176.1 81.8 185.8 84.3 186.8 84.5C190.9 85.7 165.6 73.9 156.9 70.7C129.7 60.5 96.8 55.3 77 58Z" fill="white"/>
<path d="M78.5 91C63.6 93.2 56.1 101.4 56 115.3C56 123.2 57.8 128.1 62.3 132.8C66.4 137.1 70.4 139.1 81 142.3C93.4 146.1 96.6 149.2 92.4 153.4C89.8 156.1 75.9 155.1 63.8 151.4C62.5 151 61.6 152.6 59.4 159.2C57.8 163.8 56.5 167.9 56.5 168.4C56.5 169.8 66.2 172.8 75.2 174.1C94.6 176.9 109.4 171.9 114.6 160.7C123.1 142.2 114.7 128 91 121C82.2 118.3 79.8 116.6 80.2 113.1C80.5 110.7 80.9 110.5 86.7 110.2C90.5 110 95.8 110.7 100.6 111.9C104.9 113 108.5 113.8 108.6 113.7C108.7 113.6 109.9 110.3 111.3 106.5C112.7 102.6 114.1 98.8 114.5 97.9C115 96.5 113.9 95.8 108.8 94.1C102.4 92 90.6 90 86 90.1C84.6 90.2 81.3 90.6 78.5 91Z" fill="white"/>
<path d="M156.2 91.1C141.8 93.5 128.7 105.6 124.5 120.4C121.9 129.5 122.8 141.9 126.8 150.4C134.5 166.9 150.1 176.1 167.8 174.6C175.3 174 185.1 171.8 189.5 169.8L192 168.7V150.3C192 133.2 191.9 131.9 190.3 132.4C189.3 132.6 184.8 133.2 180.3 133.5L172.1 134.2L171.8 143.9L171.5 153.5L168.5 153.8C161 154.7 152.3 148.3 150.1 140.3C147.3 130.5 150.5 118.7 157 114C161.3 110.9 168.7 110.3 176.5 112.4C179.7 113.2 182.6 113.7 182.8 113.5C183.1 113.3 185 109.3 187 104.6L190.8 96.1L185.5 94.1C180.9 92.4 165.7 89.8 162.5 90.1C162 90.2 159.1 90.6 156.2 91.1Z" fill="white"/>
<path d="M39.1 100.6C39.1 101.7 39.4 102 39.7 101.2C40 100.5 39.9 99.6 39.6 99.3C39.3 98.9 39 99.5 39.1 100.6Z" fill="white"/>
</svg>
